<?xml version="1.0" encoding="UTF-8" standalone="no"?>
<svg
   xmlns:dc="http://purl.org/dc/elements/1.1/"
   xmlns:cc="http://creativecommons.org/ns#"
   xmlns:rdf="http://www.w3.org/1999/02/22-rdf-syntax-ns#"
   xmlns:svg="http://www.w3.org/2000/svg"
   xmlns="http://www.w3.org/2000/svg"
   xmlns:sodipodi="http://sodipodi.sourceforge.net/DTD/sodipodi-0.dtd"
   xmlns:inkscape="http://www.inkscape.org/namespaces/inkscape"
   sodipodi:docname="Deltronik23.svg"
   inkscape:version="1.0 (4035a4fb49, 2020-05-01)"
   id="svg47"
   version="1.1"
   viewBox="0 0 1800 1800"
   height="1800mm"
   width="1800mm">
  <defs
     id="defs41">
    <inkscape:path-effect
       hide_knot="false"
       vertical="false"
       scale_y_rel="false"
       prop_scale="1"
       bendpath="m 172.35714,87.690476 c 6.05027,6.050264 12.09789,12.097885 16.12963,15.120374 4.03175,3.02248 6.04762,3.02248 8.06319,4.53591 2.01557,1.51344 4.03144,4.53724 6.55185,6.55212 2.52041,2.01488 5.54422,3.02281 9.5757,6.04742 4.03149,3.0246 9.07117,8.06428 12.59921,11.08756 3.52804,3.02328 5.54391,4.03122 7.05476,6.04789 1.51085,2.01666 2.51879,5.04047 11.08664,20.15949 8.56785,15.11902 24.69483,42.3333 35.2779,61.9881 10.5831,19.6548 15.62278,31.75005 23.68609,56.44448 8.06328,24.69441 19.15059,61.98806 19.1507,83.15288 1.3e-4,21.16484 -11.08718,26.20452 -19.1511,30.74035 -8.06392,4.53586 -13.10362,8.5676 -20.15816,11.08744 -7.05456,2.51987 -16.12598,3.5278 -31.2454,7.55941 -15.11941,4.03162 -36.28608,11.08716 -50.90082,15.11904 -14.61473,4.03185 -22.67822,5.03978 -29.23027,6.55156 -6.55204,1.51177 -11.59172,3.52766 -15.11939,2.52158 -3.52767,-1.00608 -5.54354,-5.03782 -8.06393,-16.12522 -2.52038,-11.08736 -5.54419,-29.23024 0.50293,-51.90987 6.04711,-22.67961 21.16617,-49.89391 48.38129,-72.5732 27.21512,-22.67929 66.52464,-40.82214 101.80306,-50.90132 35.27843,-10.07917 66.52445,-12.09504 107.85004,-11.08691 41.32559,1.00812 92.73035,5.03987 144.13227,9.07139"
       lpeversion="1"
       is_visible="true"
       id="path-effect73"
       effect="bend_path" />
  </defs>
  <sodipodi:namedview
     inkscape:window-maximized="0"
     inkscape:window-y="0"
     inkscape:window-x="78"
     inkscape:window-height="729"
     inkscape:window-width="1260"
     showgrid="false"
     inkscape:document-rotation="0"
     inkscape:current-layer="layer1"
     inkscape:document-units="mm"
     inkscape:cy="2996.1144"
     inkscape:cx="3718.6548"
     inkscape:zoom="0.04375"
     inkscape:pageshadow="2"
     inkscape:pageopacity="0.0"
     borderopacity="1.0"
     bordercolor="#666666"
     pagecolor="#ffffff"
     id="base" />
  <metadata
     id="metadata44">
    <rdf:RDF>
      <cc:Work
         rdf:about="">
        <dc:format>image/svg+xml</dc:format>
        <dc:type
           rdf:resource="http://purl.org/dc/dcmitype/StillImage" />
        <dc:title></dc:title>
      </cc:Work>
    </rdf:RDF>
  </metadata>
  <g
     id="layer1"
     inkscape:groupmode="layer"
     inkscape:label="Capa 1">
    <path
       style="stroke-width:0.0352778"
       d="m 897.65668,121.62834 c -5.70926,4.97728 -21.95878,29.57108 -41.57534,63.38755 -27.22874,46.99165 -46.55247,79.78336 -50.50497,85.63906 -3.36704,4.97729 -44.21023,75.68442 -55.33596,95.88645 -2.04958,3.65977 -11.1259,19.0309 -20.20203,34.40203 -14.78556,25.17931 -30.01029,51.969 -50.79796,89.29883 -9.95461,18.15254 -12.29684,21.22679 -18.44527,24.00825 -4.83098,2.19584 -30.88859,2.34223 -309.76462,2.34223 -234.22647,0 -306.690294,0.43916 -314.009862,1.75667 -11.711333,2.34231 -16.688613,5.70932 -17.274172,12.00413 -0.731975,7.75874 3.220605,10.68659 18.738079,13.6144 9.954636,1.75674 601.230075,1.46393 607.671315,-0.29254 4.68448,-1.31754 5.56296,0 1.90309,3.07421 -3.95249,3.22059 -20.0557,28.83913 -39.37924,62.80199 -10.39375,18.15254 -24.88669,43.18549 -32.20622,55.62878 -7.31954,12.44326 -20.7875,35.86594 -30.01025,51.969 -20.78759,36.74417 -26.0577,44.06392 -33.23088,45.96702 -3.80616,1.17108 -80.36895,1.31747 -243.74195,0.58544 l -238.179038,-0.8782 -5.123696,5.12355 c -3.074253,3.07418 -5.416487,7.17327 -6.002068,10.54032 -2.195871,10.97939 4.538139,13.46787 42.453536,15.37099 30.449455,1.46396 427.902506,-0.8783 435.807656,-2.635 5.85567,-1.31745 5.85567,-1.31745 1.02477,5.70915 -10.24743,15.07849 -54.01848,89.44538 -79.63702,135.41237 -4.97729,8.78349 -13.46804,23.27613 -18.88448,32.20609 -5.41651,8.7834 -12.88249,21.95858 -16.54226,28.98547 -3.65981,7.17312 -8.7835,15.07822 -11.27216,17.85992 l -4.53813,4.8307 -26.35048,-0.5854 c -14.49277,-0.4392 -55.62881,-1.3177 -91.64112,-2.0496 -77.14835,-1.7566 -219.440944,-1.9031 -221.929594,-0.2924 -2.927857,1.7565 -6.002067,10.6864 -7.026789,20.202 -0.878348,7.905 -0.731953,9.0761 1.610281,10.2474 3.513416,1.6102 309.471752,2.0494 322.646992,0.4392 5.12369,-0.7321 9.66186,-1.0248 9.80823,-0.7321 0.29297,0.146 -2.19585,3.9526 -5.56285,8.3443 -8.34435,11.1258 -29.42475,45.5277 -54.89685,89.1525 -11.85771,20.4949 -30.30307,51.8227 -40.98965,69.5359 -10.5402,17.7134 -25.76487,43.7711 -33.81642,57.8247 -18.88455,33.2308 -37.18348,64.1196 -45.08862,76.4164 -6.00205,9.0764 -45.82054,78.1731 -60.45971,104.3773 -3.51342,6.4412 -9.22266,16.2493 -12.73608,21.9586 -3.366953,5.5629 -13.028841,22.1051 -21.226748,36.598 -8.197938,14.4928 -18.298968,31.7669 -22.397901,38.501 -3.952578,6.5875 -6.880425,12.443 -6.441262,12.8827 1.317534,1.4634 1693.750321,0.7316 1695.214421,-0.7321 1.6101,-1.6104 2.4886,-0.146 -31.9136,-57.9712 -13.9073,-23.4227 -30.7421,-51.9691 -37.3298,-63.6804 -6.7341,-11.7113 -21.5198,-37.0371 -32.938,-56.3606 -11.4187,-19.3238 -28.6931,-49.0412 -38.5012,-65.8762 -9.6617,-16.9814 -27.9605,-48.163 -40.5504,-69.5361 -12.5896,-21.3731 -30.5959,-51.9691 -39.8186,-68.0721 -9.3691,-16.103 -27.9604,-47.7235 -41.4287,-70.2678 -13.4679,-22.5445 -29.8641,-50.5052 -36.5978,-62.2166 -6.734,-11.7113 -24.4473,-42.0143 -39.5257,-67.34009 -15.0782,-25.32562 -32.9379,-55.62874 -39.5256,-67.34015 -6.7342,-11.71113 -23.7156,-40.40397 -37.7691,-63.68029 -14.2,-23.42255 -31.4743,-52.40802 -38.355,-64.41217 -28.5459,-49.33398 -34.2555,-59.14226 -47.4307,-80.36898 -13.4678,-21.66593 -36.0121,-60.31335 -36.0121,-61.63087 0,-1.61029 -46.2599,-78.31947 -51.2372,-84.90709 -6.1485,-8.1979 -10.8331,-15.37109 -10.1009,-15.37109 0.2928,0 5.5629,1.17113 11.5648,2.48865 9.9546,2.19585 36.7444,2.48863 305.6655,2.9278 199.3856,0.4392 297.3212,0.1465 303.0306,-1.02473 9.9545,-1.75667 13.4681,-5.27008 13.4681,-13.46802 0,-5.12369 -0.5855,-6.00206 -4.8311,-7.75876 -11.4182,-4.83093 -34.2555,-5.1237 -330.259,-5.27009 -162.3485,0 -298.6389,-0.58556 -303.0308,-1.17112 -9.369,-1.31753 -10.2474,-2.34229 -21.2266,-23.56905 -4.2456,-8.49069 -15.9568,-28.83912 -25.765,-45.235 -9.8083,-16.39587 -26.9361,-45.82054 -38.0618,-65.14425 -10.9794,-19.47005 -31.9134,-55.04321 -46.4061,-79.1978 -14.49281,-24.15465 -29.13196,-49.18759 -32.64539,-55.62882 -13.76077,-25.17934 -43.33189,-76.85554 -51.38346,-89.44522 -4.6844,-7.46598 -11.85766,-19.03092 -15.95663,-25.91131 -3.95249,-6.88039 -7.90508,-12.88246 -8.637,-13.46801 -0.73193,-0.43921 -3.51333,1.02471 -6.14844,3.2206 z m 14.93193,66.0226 c 3.95248,6.73397 9.66179,16.98141 12.4432,22.69066 5.41654,10.6866 19.76284,35.2804 52.55475,90.32361 9.80804,16.54224 29.27814,49.48035 43.18534,73.19578 30.5957,52.11538 71.2927,119.30912 85.6391,141.12142 l 2.7814,4.09899 -4.3918,-0.87833 c -2.3423,-0.43921 -95.5936,-1.02477 -207.29041,-1.17117 -134.68012,-0.29297 -202.6059,-0.87832 -202.02025,-1.90309 0.43914,-0.8783 3.51335,-5.41649 6.88039,-10.24738 10.39374,-14.63917 39.81839,-63.53394 89.29875,-147.8555 12.58966,-21.37315 51.23713,-85.49267 75.39166,-125.16479 6.58756,-10.83294 16.68867,-29.57108 22.54425,-41.42881 l 10.39392,-21.66592 2.63513,3.36699 c 1.61023,1.75669 6.00187,8.78351 9.95457,15.51754 z M 872.47719,544.6999 c 98.37526,0.29297 192.65131,0 209.34001,-0.73196 16.6886,-0.73191 31.9133,-0.87833 33.6701,-0.1465 7.1732,2.63505 19.6163,20.78759 41.7215,60.60611 16.6887,29.86385 38.6473,67.48649 50.5052,86.37099 4.099,6.58762 13.6142,22.98347 21.0803,36.59785 7.4658,13.76087 15.5173,28.10729 17.7135,32.20616 4.977,9.07625 4.977,9.66189 0.1459,8.05167 -13.9073,-4.53813 -28.4001,-4.831 -243.449,-4.24557 -118.72368,0.29308 -268.33587,0.43936 -332.30899,0.14595 -82.12573,-0.29276 -117.69882,0 -120.62663,1.17118 -2.34229,0.87842 -4.39177,1.31757 -4.68454,1.02481 -0.29296,-0.29299 3.51338,-5.70932 8.49072,-12.15054 10.10104,-12.73608 18.29888,-25.17939 32.93815,-49.62672 17.42046,-28.98555 47.86989,-80.95454 58.11733,-99.25348 14.78557,-26.05769 32.20622,-54.01849 36.89069,-58.70302 3.36703,-3.22062 4.83098,-3.80618 7.90519,-2.92782 2.04941,0.58555 84.17513,1.31754 182.55019,1.61029 z M 726.0857,793.27284 c 86.22474,0 157.37088,0.43915 157.95653,1.17113 1.61027,1.46396 -2.48874,9.51547 -10.54025,20.34839 -3.65986,5.12359 -12.44316,18.73802 -19.32372,30.44934 -6.8804,11.71142 -21.8123,36.74444 -33.23085,55.62888 -11.41854,18.88453 -28.10721,47.28434 -37.18332,63.24109 -16.54237,29.13199 -27.37525,45.23503 -32.05992,47.43093 -1.31743,0.7319 -79.19783,1.3174 -173.03474,1.3174 -160.00596,0 -170.83896,0.1459 -174.64512,2.4888 -2.04949,1.4639 -4.24539,2.635 -4.68454,2.635 -0.43916,0 3.07422,-5.1238 7.75875,-11.4185 10.24742,-13.46816 19.47008,-28.10721 35.13397,-55.33604 6.29483,-11.27208 14.63913,-25.32566 18.59171,-31.32774 3.80622,-6.00208 14.05361,-23.56906 22.69072,-38.79377 44.21024,-78.17312 48.89477,-85.49265 56.21436,-88.71341 1.75669,-0.73188 8.78346,-0.8782 16.24938,-0.29244 7.31972,0.73179 83.73599,1.17113 170.10704,1.17113 z m 376.6654,-0.43935 c 178.3047,-0.14593 161.177,-1.31735 171.1317,12.88255 3.0744,4.3918 14.6393,23.8618 25.7649,43.18567 11.1257,19.32349 32.9381,56.50698 48.3093,82.71113 15.5174,26.20416 42.1608,71.58546 59.2886,101.01006 17.1278,29.4246 31.6207,54.0185 32.2061,54.8968 0.5856,0.732 15.6638,26.2041 33.3771,56.3608 17.5674,30.1568 38.5012,65.7299 46.4063,79.0515 7.7588,13.3216 19.47,33.3771 25.9115,44.6494 6.4411,11.2722 26.4967,45.235 44.3564,75.3915 17.8598,30.1567 42.1608,71 53.7259,90.7629 11.7112,19.7628 30.5956,51.3834 42.1608,70.1217 11.4182,18.8844 21.0804,35.1339 21.373,36.0122 0.4393,1.1711 -2.1956,1.3176 -9.2226,0.2929 -5.5629,-0.5856 -362.0263,-1.3176 -804.42156,-1.4639 -436.83247,-0.1459 -794.759809,-0.732 -795.198972,-1.1711 -0.439164,-0.4392 2.049487,-5.1238 5.562862,-10.2475 3.367,-5.27 13.02887,-21.0804 21.37318,-35.1339 8.3443,-13.9073 22.83706,-38.3547 32.20615,-54.0186 9.51544,-15.6638 25.91131,-43.771 36.59786,-62.2163 24.59378,-42.8927 26.35048,-45.6741 41.28243,-70.2679 6.8804,-11.2723 21.22679,-35.7196 31.91335,-54.1649 10.68659,-18.5918 28.54638,-48.8948 39.52571,-67.3401 30.01031,-50.066 59.5814,-101.8886 68.80407,-120.0411 11.27215,-22.3979 9.95463,-21.9587 49.33393,-19.9094 36.59788,1.9031 279.46148,1.9031 298.34588,0.146 7.17339,-0.7319 13.17532,-1.1711 13.32182,-1.0246 0.29282,0.2927 -2.63506,5.4164 -35.13411,62.6555 -19.9092,34.8413 -34.69478,60.167 -63.8266,109.6473 -7.90519,13.3216 -16.39585,28.2535 -18.8846,33.2308 l -4.53814,9.0763 4.83098,0.732 c 14.49274,2.3423 98.96071,3.0742 318.25535,2.7813 134.68001,-0.1459 246.08401,-0.5854 247.69431,-1.1711 2.3423,-0.7319 2.6351,-1.4639 1.6103,-4.2453 -1.3175,-3.5134 -17.567,-31.9134 -39.8184,-69.6823 -17.567,-29.7176 -81.1009,-139.8039 -96.0328,-166.1544 -6.8806,-12.1506 -26.0579,-44.64933 -42.7466,-72.46392 -16.6885,-27.81425 -39.08631,-66.02255 -49.7729,-84.90708 -24.88661,-44.06368 -30.59593,-52.99378 -40.69687,-63.38746 l -8.34433,-8.63717 18.299,1.17133 c 10.10084,0.58537 89.1524,1.02452 175.6697,0.8783 z m -193.9687,39.52576 c 3.95248,6.73415 11.12574,19.76293 16.10302,28.98557 8.34434,15.66406 29.86379,52.84736 94.12968,163.22658 44.2103,75.8307 89.8845,153.5647 92.5195,157.3709 1.3176,2.0496 7.9051,13.4681 14.6392,25.6186 6.5876,12.004 13.1754,23.4226 14.4928,25.472 2.1959,3.5133 2.1959,3.6598 -0.5856,2.4887 -7.9052,-3.2205 -54.604,-3.8061 -258.82016,-3.5133 -121.35865,0.2928 -220.61219,0.1459 -220.61219,0 0,-0.2931 1.17112,-2.3423 2.78156,-4.3918 1.46377,-2.196 13.90711,-22.6907 27.52157,-45.6742 23.12991,-38.7938 33.81648,-56.7999 54.31116,-92.2267 4.39182,-7.6123 11.1259,-19.1772 14.93208,-25.6184 3.80618,-6.4413 10.54007,-18.2989 14.93189,-26.3505 4.39165,-8.0516 14.63908,-25.4722 22.69077,-38.7938 8.05134,-13.3216 22.39776,-37.32981 31.91322,-53.43298 9.51545,-16.10302 19.17741,-32.64519 21.66596,-36.59793 21.22683,-35.13377 37.76899,-66.02245 45.52786,-84.61425 1.31744,-3.07415 2.78143,-5.27009 3.51335,-4.83094 0.73202,0.43915 4.53812,6.2949 8.34433,12.88245 z"
       id="path4" />
  </g>
</svg>
