<?xml version="1.0" standalone="no"?>
<!DOCTYPE svg PUBLIC "-//W3C//DTD SVG 20010904//EN"
 "http://www.w3.org/TR/2001/REC-SVG-20010904/DTD/svg10.dtd">
<svg version="1.0" xmlns="http://www.w3.org/2000/svg"
 width="11824.000000pt" height="5168.000000pt" viewBox="0 0 11824.000000 5168.000000"
 preserveAspectRatio="xMidYMid meet">
<metadata>
Created by potrace 1.16, written by Peter Selinger 2001-2019
</metadata>
<g transform="translate(0.000000,5168.000000) scale(0.100000,-0.100000)"
fill="#000000" stroke="none">
<path d="M78109 28913 c-39 -34 -150 -202 -284 -433 -186 -321 -318 -545 -345
-585 -23 -34 -302 -517 -378 -655 -14 -25 -76 -130 -138 -235 -101 -172 -205
-355 -347 -610 -68 -124 -84 -145 -126 -164 -33 -15 -211 -16 -2116 -16 -1600
0 -2095 -3 -2145 -12 -80 -16 -114 -39 -118 -82 -5 -53 22 -73 128 -93 68 -12
4107 -10 4151 2 32 9 38 0 13 -21 -27 -22 -137 -197 -269 -429 -71 -124 -170
-295 -220 -380 -50 -85 -142 -245 -205 -355 -142 -251 -178 -301 -227 -314
-26 -8 -549 -9 -1665 -4 l-1627 6 -35 -35 c-21 -21 -37 -49 -41 -72 -15 -75
31 -92 290 -105 208 -10 2923 6 2977 18 40 9 40 9 7 -39 -70 -103 -369 -611
-544 -925 -34 -60 -92 -159 -129 -220 -37 -60 -88 -150 -113 -198 -25 -49 -60
-103 -77 -122 l-31 -33 -180 4 c-99 3 -380 9 -626 14 -527 12 -1499 13 -1516
2 -20 -12 -41 -73 -48 -138 -6 -54 -5 -62 11 -70 24 -11 2114 -14 2204 -3 35
5 66 7 67 5 2 -1 -15 -27 -38 -57 -57 -76 -201 -311 -375 -609 -81 -140 -207
-354 -280 -475 -72 -121 -176 -299 -231 -395 -129 -227 -254 -438 -308 -522
-41 -62 -313 -534 -413 -713 -24 -44 -63 -111 -87 -150 -23 -38 -89 -151 -145
-250 -56 -99 -125 -217 -153 -263 -27 -45 -47 -85 -44 -88 9 -10 11570 -5
11580 5 11 11 17 1 -218 396 -95 160 -210 355 -255 435 -46 80 -147 253 -225
385 -78 132 -196 335 -263 450 -66 116 -191 329 -277 475 -86 146 -209 355
-272 465 -64 110 -191 326 -283 480 -92 154 -204 345 -250 425 -46 80 -167
287 -270 460 -103 173 -225 380 -270 460 -46 80 -162 276 -258 435 -97 160
-215 358 -262 440 -195 337 -234 404 -324 549 -92 148 -246 412 -246 421 0 11
-316 535 -350 580 -42 56 -74 105 -69 105 2 0 38 -8 79 -17 68 -15 251 -17
2088 -20 1362 -3 2031 -1 2070 7 68 12 92 36 92 92 0 35 -4 41 -33 53 -78 33
-234 35 -2256 36 -1109 0 -2040 4 -2070 8 -64 9 -70 16 -145 161 -29 58 -109
197 -176 309 -67 112 -184 313 -260 445 -75 133 -218 376 -317 541 -99 165
-199 336 -223 380 -94 172 -296 525 -351 611 -32 51 -81 130 -109 177 -27 47
-54 88 -59 92 -5 3 -24 -7 -42 -22z m102 -451 c27 -46 66 -116 85 -155 37 -73
135 -241 359 -617 67 -113 200 -338 295 -500 209 -356 487 -815 585 -964 l19
-28 -30 6 c-16 3 -653 7 -1416 8 -920 2 -1384 6 -1380 13 3 6 24 37 47 70 71
100 272 434 610 1010 86 146 350 584 515 855 45 74 114 202 154 283 l71 148
18 -23 c11 -12 41 -60 68 -106z m-274 -2439 c672 -2 1316 0 1430 5 114 5 218
6 230 1 49 -18 134 -142 285 -414 114 -204 264 -461 345 -590 28 -45 93 -157
144 -250 51 -94 106 -192 121 -220 34 -62 34 -66 1 -55 -95 31 -194 33 -1663
29 -811 -2 -1833 -3 -2270 -1 -561 2 -804 0 -824 -8 -16 -6 -30 -9 -32 -7 -2
2 24 39 58 83 69 87 125 172 225 339 119 198 327 553 397 678 101 178 220 369
252 401 23 22 33 26 54 20 14 -4 575 -9 1247 -11z m-1000 -1698 c589 0 1075
-3 1079 -8 11 -10 -17 -65 -72 -139 -25 -35 -85 -128 -132 -208 -47 -80 -149
-251 -227 -380 -78 -129 -192 -323 -254 -432 -113 -199 -187 -309 -219 -324
-9 -5 -541 -9 -1182 -9 -1093 0 -1167 -1 -1193 -17 -14 -10 -29 -18 -32 -18
-3 0 21 35 53 78 70 92 133 192 240 378 43 77 100 173 127 214 26 41 96 161
155 265 302 534 334 584 384 606 12 5 60 6 111 2 50 -5 572 -8 1162 -8z m2573
3 c1218 1 1101 9 1169 -88 21 -30 100 -163 176 -295 76 -132 225 -386 330
-565 106 -179 288 -489 405 -690 117 -201 216 -369 220 -375 4 -5 107 -179
228 -385 120 -206 263 -449 317 -540 53 -91 133 -228 177 -305 44 -77 181
-309 303 -515 122 -206 288 -485 367 -620 80 -135 209 -351 288 -479 78 -129
144 -240 146 -246 3 -8 -15 -9 -63 -2 -38 4 -2473 9 -5495 10 -2984 1 -5429 5
-5432 8 -3 3 14 35 38 70 23 36 89 144 146 240 57 95 156 262 220 369 65 107
177 299 250 425 168 293 180 312 282 480 47 77 145 244 218 370 73 127 195
334 270 460 205 342 407 696 470 820 77 153 68 150 337 136 250 -13 1909 -13
2038 -1 49 5 90 8 91 7 2 -2 -18 -37 -240 -428 -136 -238 -237 -411 -436 -749
-54 -91 -112 -193 -129 -227 l-31 -62 33 -5 c99 -16 676 -21 2174 -19 920 1
1681 4 1692 8 16 5 18 10 11 29 -9 24 -120 218 -272 476 -120 203 -554 955
-656 1135 -47 83 -178 305 -292 495 -114 190 -267 451 -340 580 -170 301 -209
362 -278 433 l-57 59 125 -8 c69 -4 609 -7 1200 -6z m-1325 -270 c27 -46 76
-135 110 -198 57 -107 204 -361 643 -1115 302 -518 614 -1049 632 -1075 9 -14
54 -92 100 -175 45 -82 90 -160 99 -174 15 -24 15 -25 -4 -17 -54 22 -373 26
-1768 24 -829 -2 -1507 -1 -1507 0 0 2 8 16 19 30 10 15 95 155 188 312 158
265 231 388 371 630 30 52 76 131 102 175 26 44 72 125 102 180 30 55 100 174
155 265 55 91 153 255 218 365 65 110 131 223 148 250 145 240 258 451 311
578 9 21 19 36 24 33 5 -3 31 -43 57 -88z"/>
<path d="M57500 25646 c-41 -7 -130 -32 -196 -54 -215 -72 -344 -149 -479
-286 -105 -106 -169 -199 -226 -328 -124 -281 -162 -442 -179 -760 -13 -252
-13 -3381 0 -3643 16 -321 43 -477 120 -698 55 -159 104 -254 193 -373 198
-264 411 -391 709 -424 124 -13 600 -13 740 0 226 22 428 115 589 272 77 75
239 290 280 369 31 62 91 289 108 409 6 41 21 138 33 215 l23 140 3 1795 c3
1895 4 1869 -44 2190 -31 209 -59 316 -123 463 -160 373 -487 624 -916 702
-123 23 -530 30 -635 11z m648 -230 c164 -43 254 -77 353 -136 260 -154 424
-463 477 -895 15 -128 17 -307 17 -2020 0 -1989 1 -1928 -47 -2210 -37 -220
-95 -356 -226 -532 -63 -85 -106 -126 -207 -199 -100 -71 -243 -140 -332 -159
-130 -28 -323 -39 -483 -26 -354 28 -623 141 -759 320 -187 247 -275 540 -300
1001 -13 244 -6 3505 8 3659 24 265 52 419 106 566 47 129 84 197 162 295 146
182 311 277 602 345 145 33 145 33 326 30 147 -2 172 -5 303 -39z"/>
<path d="M69400 25631 c-68 -45 -237 -266 -418 -546 -97 -150 -357 -544 -472
-715 -69 -103 -287 -432 -612 -925 -91 -137 -195 -299 -233 -360 -37 -60 -84
-132 -104 -159 -20 -27 -88 -133 -151 -236 -63 -103 -155 -249 -205 -323 -49
-75 -121 -186 -160 -247 -38 -61 -78 -118 -87 -127 -16 -14 -18 -14 -28 11 -7
18 -10 591 -10 1729 0 977 -4 1740 -10 1790 -5 49 -14 95 -21 103 -20 25 -170
-9 -183 -42 -8 -22 -9 -6302 0 -6417 4 -54 12 -100 17 -104 27 -17 169 6 184
30 4 6 10 566 13 1242 6 1365 0 1258 71 1363 18 26 87 128 153 227 67 99 160
234 206 299 l85 120 6 -36 c8 -49 90 -183 536 -868 45 -69 137 -210 204 -315
68 -104 222 -342 344 -527 121 -185 281 -432 355 -548 498 -775 591 -907 694
-982 l39 -28 38 22 c22 12 48 31 59 43 l20 21 -126 190 c-70 104 -172 263
-229 354 -56 91 -182 289 -280 440 -172 265 -286 443 -554 862 -69 108 -190
295 -267 415 -319 492 -395 611 -519 809 -71 113 -150 229 -174 255 l-43 49
33 55 c18 30 54 85 80 122 76 107 593 882 855 1281 554 843 646 982 716 1082
87 125 339 522 356 563 2 4 -16 16 -40 26 -77 34 -89 35 -138 2z"/>
<path d="M44535 25625 c-29 -8 -59 -24 -72 -40 l-23 -26 2 -3238 3 -3238 170
-6 c242 -10 1747 -8 2013 2 168 6 227 12 237 22 7 8 16 41 19 75 8 75 1 82
-86 94 -82 12 -347 22 -293 11 22 -5 -250 -8 -605 -8 -355 0 -611 3 -570 7 41
3 302 7 579 8 278 1 507 5 510 8 6 6 -1618 -3 -1699 -9 l-35 -2 -6 190 c-4
105 -7 1486 -8 3070 -1 2672 -4 3020 -27 3079 -7 19 -40 20 -109 1z"/>
<path d="M60807 25629 c-51 -12 -94 -35 -105 -57 -13 -23 -12 50 -15 -3217 -2
-3064 -1 -3153 42 -3250 14 -32 27 -46 47 -51 40 -10 93 22 118 71 l21 40 2
2960 c2 1628 3 2970 3 2983 0 58 58 4 86 -81 9 -29 39 -108 66 -177 28 -69 74
-195 103 -280 29 -85 81 -225 115 -310 34 -85 97 -252 140 -370 43 -118 128
-348 190 -510 61 -162 172 -457 246 -655 75 -198 194 -515 266 -705 72 -190
166 -439 208 -555 71 -191 121 -322 340 -885 40 -102 99 -259 132 -350 32 -91
73 -201 90 -245 17 -44 63 -177 103 -295 151 -444 230 -589 355 -645 52 -23
65 -17 105 56 l29 54 7 475 c5 371 -8 5539 -14 5910 l-2 85 -35 3 c-47 5 -101
-13 -128 -41 l-22 -23 -4 -2855 c-3 -1569 -5 -2915 -6 -2989 l-1 -135 -39 76
c-21 41 -54 120 -73 175 -19 54 -54 146 -77 204 -23 58 -75 195 -115 305 -40
110 -102 279 -138 375 -36 96 -100 267 -143 380 -164 438 -216 579 -368 980
-87 228 -187 494 -222 590 -36 96 -87 232 -115 302 -27 71 -67 176 -88 235
-22 60 -80 216 -131 348 -50 132 -112 296 -137 365 -25 69 -77 206 -115 305
-38 99 -117 311 -175 470 -121 335 -269 706 -324 816 -61 122 -105 146 -222
118z"/>
<path d="M36177 25622 c-3 -4 -4 -239 -2 -522 2 -283 3 -1763 4 -3289 l1
-2773 28 7 c15 4 349 10 742 15 862 10 961 19 1210 109 259 95 487 306 660
612 90 160 155 432 176 739 11 160 5 3565 -6 3705 -20 238 -87 499 -172 670
-50 99 -154 259 -204 315 -44 49 -158 137 -256 199 -186 117 -505 194 -853
206 -275 9 -1324 15 -1328 7z m1661 -246 c211 -35 332 -83 472 -186 260 -192
408 -498 450 -930 16 -160 8 -3815 -8 -3915 -16 -94 -47 -225 -73 -305 -47
-145 -157 -342 -246 -441 -78 -87 -320 -225 -473 -269 -60 -18 -115 -24 -270
-29 -107 -4 -176 -8 -152 -9 24 -1 41 -6 38 -10 -7 -12 -111 -14 -336 -5 -175
7 -193 9 -120 14 47 3 -85 5 -292 5 -349 -1 -379 0 -395 17 -17 17 -18 154
-21 3053 l-2 3036 662 -5 c565 -3 678 -6 766 -21z"/>
<path d="M40478 25608 c-18 -18 -19 -94 -16 -3276 l3 -3257 1190 0 c655 0
1216 4 1249 8 77 11 106 39 106 100 0 57 -20 75 -96 88 -75 12 -380 21 -339
10 17 -5 -257 -9 -644 -10 -371 0 -671 2 -667 7 4 4 267 10 584 13 525 6 499
6 -290 5 l-868 -1 0 1494 0 1494 538 -5 c295 -2 720 -2 944 1 l406 6 27 25
c25 23 27 30 23 87 -2 35 -9 68 -15 74 -6 6 -31 15 -55 20 -60 12 -1640 22
-1762 12 -67 -6 -99 -6 -102 2 -2 5 -5 660 -6 1455 l-3 1445 1123 -3 1122 -4
30 32 c36 39 64 119 46 137 -6 7 -38 19 -71 28 -76 21 -215 24 -1469 28 -939
4 -970 3 -988 -15z"/>
<path d="M52193 25622 l-71 -3 -7 -122 c-3 -67 -5 -1524 -3 -3237 4 -3432 0
-3217 62 -3213 41 3 117 44 140 75 20 28 20 43 17 1462 -1 788 1 1455 5 1481
l7 48 66 -6 c36 -4 194 -9 351 -12 412 -8 814 -38 979 -71 289 -59 568 -259
691 -494 113 -218 138 -436 145 -1275 6 -762 17 -901 91 -1086 53 -130 45
-125 148 -110 47 7 89 17 92 23 3 5 -6 37 -20 71 -40 97 -56 175 -78 386 -16
163 -21 306 -28 856 -8 683 -12 744 -56 920 -46 185 -120 350 -214 477 -100
136 -305 267 -512 327 -58 17 -125 39 -148 49 l-42 18 114 38 c129 43 283 116
378 178 184 120 346 365 413 623 54 208 59 261 64 709 6 463 -3 625 -43 822
-69 340 -169 556 -335 724 -188 189 -358 260 -749 310 -96 12 -248 23 -365 25
-275 7 -1004 11 -1092 7z m822 -222 c632 -9 703 -14 875 -61 150 -42 213 -80
340 -208 71 -71 130 -141 153 -181 76 -132 150 -430 177 -715 13 -141 13 -539
0 -681 -33 -366 -46 -449 -87 -573 -62 -189 -160 -342 -280 -434 -199 -153
-373 -215 -664 -236 -74 -6 -370 -11 -659 -12 l-525 -3 -6 90 c-5 73 -15 2999
-10 3028 0 5 20 6 44 2 23 -4 312 -11 642 -16z"/>
<path d="M65042 25623 c-12 -2 -30 -15 -38 -29 -15 -22 -16 -311 -15 -3140 2
-3237 2 -3261 41 -3379 10 -32 11 -32 60 -24 80 13 105 35 125 114 4 17 7
1418 6 3115 -2 2925 -5 3308 -30 3332 -9 10 -119 18 -149 11z"/>
<path d="M47723 25610 c-59 -24 -70 -123 -19 -167 49 -42 105 -45 773 -47 504
-1 635 -4 645 -14 11 -11 12 -538 10 -2885 -4 -3325 -1 -3446 67 -3455 25 -4
107 24 116 39 22 35 25 340 23 2999 0 1581 -2 2975 -3 3098 l-1 222 697 0 698
0 26 33 c23 32 49 122 39 139 -3 4 -28 15 -57 25 -49 17 -147 18 -1522 20
-851 1 -1479 -2 -1492 -7z"/>
</g>
</svg>
